<svg width="36" height="36" viewBox="0 0 36 36" fill="none" xmlns="http://www.w3.org/2000/svg">
<rect x="0.000244141" y="0.00195312" width="36" height="36" rx="3" fill="#CB8461"/>
<path d="M18.1762 24.2429C16.7282 24.2429 15.5202 23.9549 14.5522 23.3789C13.5922 22.7949 12.8722 22.0269 12.3922 21.0749C11.9122 20.1149 11.6722 19.0669 11.6722 17.9309C11.6722 16.8349 11.8962 15.8229 12.3442 14.8949C12.8002 13.9669 13.4642 13.2229 14.3362 12.6629C15.2082 12.0949 16.2722 11.8109 17.5282 11.8109C18.6802 11.8109 19.6402 12.0469 20.4082 12.5189C21.1762 12.9909 21.7522 13.6229 22.1362 14.4149C22.5202 15.1989 22.7122 16.0669 22.7122 17.0189C22.7122 17.2829 22.6962 17.5509 22.6642 17.8229C22.6322 18.0869 22.5842 18.3629 22.5202 18.6509H14.7682C14.8802 19.3949 15.1122 19.9989 15.4642 20.4629C15.8242 20.9189 16.2602 21.2549 16.7722 21.4709C17.2922 21.6869 17.8482 21.7949 18.4402 21.7949C19.1362 21.7949 19.7842 21.7069 20.3842 21.5309C20.9842 21.3469 21.5362 21.1069 22.0402 20.8109L22.1842 23.3309C21.7282 23.5709 21.1602 23.7829 20.4802 23.9669C19.8002 24.1509 19.0322 24.2429 18.1762 24.2429ZM14.8402 16.6349H19.6882C19.6882 16.2749 19.6202 15.9149 19.4842 15.5549C19.3482 15.1869 19.1202 14.8789 18.8002 14.6309C18.4882 14.3829 18.0642 14.2589 17.5282 14.2589C16.7602 14.2589 16.1562 14.4829 15.7162 14.9309C15.2762 15.3789 14.9842 15.9469 14.8402 16.6349Z" fill="white"/>
</svg>
