<svg width="175" height="26" viewBox="0 0 175 26" fill="none" xmlns="http://www.w3.org/2000/svg">
<g clip-path="url(#clip0_4169_2559)">
<path d="M39.3561 11.5104H37.5742V8.83998H39.4474V5.08398H42.7827V8.7947H45.8898V11.4651H42.7827V16.9427C42.7608 17.2952 42.8162 17.6482 42.9452 17.9774C43.0742 18.3066 43.2737 18.6041 43.5299 18.8494C43.7862 19.0946 44.093 19.2818 44.4293 19.3981C44.7656 19.5143 45.1233 19.5568 45.4778 19.5226C45.6917 19.5232 45.9053 19.5081 46.117 19.4773V22.4193C45.7705 22.4839 45.4183 22.5142 45.0657 22.5099C43.1469 22.5099 39.355 21.9709 39.355 17.3955L39.3561 11.5104Z" fill="#C8C8C8"/>
<path d="M55.255 13.8689H55.6659V13.7783C55.6659 11.8324 54.8897 11.1079 53.1535 11.1079C52.5143 11.1079 51.326 11.289 51.326 12.0135V12.738H48.1733V11.2815C48.1733 8.74696 51.7826 8.47852 53.1992 8.47852C57.7652 8.47852 59.1382 10.8319 59.1382 13.9098V18.9768C59.1319 19.0557 59.1428 19.135 59.1704 19.2093C59.1979 19.2836 59.2415 19.3511 59.2979 19.407C59.3544 19.463 59.4224 19.5062 59.4973 19.5335C59.5722 19.5608 59.6523 19.5717 59.7318 19.5654H60.8288V22.4179H57.7674C56.4878 22.4179 56.0279 21.7388 56.0279 20.9248C56.0254 20.7277 56.0407 20.5307 56.0736 20.3362H55.9366C55.5455 21.0868 54.9467 21.7111 54.2103 22.136C53.4739 22.5609 52.6306 22.7687 51.7794 22.7349C49.3126 22.7349 47.1199 21.1965 47.1199 18.4808C47.0775 14.2257 53.0165 13.8689 55.255 13.8689ZM52.6056 20.0688C54.4331 20.0688 55.7127 18.1682 55.7127 16.494V16.177H55.1191C53.3372 16.177 50.5052 16.4034 50.5052 18.304C50.5174 18.5597 50.5826 18.8101 50.6968 19.0396C50.8109 19.2691 50.9715 19.4728 51.1686 19.638C51.3657 19.8032 51.5951 19.9264 51.8423 19.9998C52.0895 20.0731 52.3494 20.0952 52.6056 20.0645V20.0688Z" fill="#C8C8C8"/>
<path d="M62.6573 6.94099C62.6676 6.86127 62.6593 6.78026 62.6331 6.7042C62.6069 6.62814 62.5635 6.55904 62.5062 6.5022C62.4489 6.44537 62.3792 6.40231 62.3025 6.37634C62.2258 6.35036 62.1441 6.34216 62.0637 6.35237H60.9668V3.50195H64.2108C65.4904 3.50195 66.0383 4.04099 66.0383 5.31203V18.9798C66.0319 19.0587 66.0429 19.138 66.0705 19.2123C66.098 19.2866 66.1415 19.3541 66.198 19.4101C66.2544 19.4661 66.3225 19.5092 66.3974 19.5365C66.4723 19.5639 66.5523 19.5748 66.6319 19.5684H67.6832V22.4199H64.4391C63.1596 22.4199 62.6116 21.8809 62.6116 20.6098V6.94099H62.6573Z" fill="#C8C8C8"/>
<path d="M75.4495 8.47972C79.3785 8.47972 81.5256 11.3312 81.5256 14.9481C81.5256 15.3556 81.4343 16.2149 81.4343 16.2149H71.9761C72.0452 17.2364 72.5135 18.191 73.2813 18.8755C74.0491 19.56 75.056 19.9205 76.0877 19.8803C77.5067 19.8181 78.8613 19.2751 79.9253 18.3419L81.3386 20.6953C79.8044 22.014 77.8407 22.7374 75.8104 22.7318C74.8477 22.7803 73.8852 22.6312 72.9833 22.2938C72.0814 21.9563 71.2594 21.4379 70.5689 20.7708C69.8784 20.1038 69.3342 19.3026 68.9704 18.4173C68.6067 17.5321 68.4311 16.5819 68.4548 15.6262C68.3977 14.6908 68.5379 13.7539 68.8663 12.8753C69.1948 11.9966 69.7044 11.1955 70.3626 10.523C71.0207 9.85056 71.813 9.32155 72.6889 8.96974C73.5648 8.61793 74.505 8.45104 75.4495 8.47972ZM78.0076 13.8701C78.0221 13.5182 77.9658 13.1669 77.842 12.8368C77.7183 12.5067 77.5294 12.2043 77.2865 11.9473C77.0437 11.6903 76.7516 11.4838 76.4275 11.3399C76.1033 11.196 75.7535 11.1176 75.3984 11.1091C74.594 11.0882 73.809 11.356 73.1878 11.8632C72.5666 12.3705 72.151 13.0831 72.0174 13.8701H78.0076Z" fill="#C8C8C8"/>
<path d="M84.0836 12.2789C84.0939 12.1992 84.0856 12.1182 84.0594 12.0421C84.0332 11.9661 83.9898 11.897 83.9325 11.8401C83.8752 11.7833 83.8055 11.7402 83.7288 11.7143C83.6521 11.6883 83.5704 11.6801 83.49 11.6903H82.3931V8.7946H85.5458C86.7797 8.7946 87.3276 9.33364 87.3276 10.333V10.7405C87.3243 10.9375 87.3091 11.134 87.282 11.3291H87.3276C87.7874 10.4575 88.4857 9.73219 89.3424 9.23639C90.1991 8.74058 91.1794 8.49442 92.1709 8.52616C95.2323 8.52616 96.9684 10.1098 96.9684 13.6858V18.9802C96.962 19.0591 96.973 19.1385 97.0006 19.2127C97.0281 19.287 97.0716 19.3545 97.1281 19.4105C97.1845 19.4665 97.2526 19.5096 97.3275 19.537C97.4024 19.5643 97.4824 19.5752 97.562 19.5688H98.6589V22.4203H95.4149C94.1353 22.4203 93.5874 21.8813 93.5874 20.6102V14.3607C93.5874 12.6864 93.1765 11.5997 91.4403 11.5997C90.603 11.5896 89.7859 11.8551 89.117 12.3547C88.4481 12.8543 87.9653 13.5598 87.744 14.3607C87.5572 14.946 87.4647 15.5569 87.47 16.1707V22.416H84.089V12.2822L84.0836 12.2789Z" fill="#C8C8C8"/>
<path d="M100.668 11.5104H98.8857V8.83998H100.759V5.08398H104.094V8.7947H107.201V11.4651H104.094V16.9427C104.072 17.2952 104.128 17.6482 104.257 17.9774C104.386 18.3066 104.585 18.6041 104.841 18.8494C105.098 19.0946 105.405 19.2818 105.741 19.3981C106.077 19.5143 106.435 19.5568 106.789 19.5226C107.003 19.5232 107.217 19.5081 107.429 19.4773V22.4193C107.082 22.4839 106.73 22.5142 106.377 22.5099C104.458 22.5099 100.666 21.9709 100.666 17.3955L100.668 11.5104Z" fill="#C8C8C8"/>
<path d="M116.613 8.47947C118.395 8.47947 121.593 9.20393 121.593 11.5574V13.141H118.577V12.4166C118.577 11.6921 117.435 11.3299 116.613 11.3299C116.058 11.3227 115.507 11.4296 114.996 11.6438C114.484 11.858 114.023 12.1748 113.641 12.5744C113.259 12.974 112.965 13.4477 112.776 13.9657C112.588 14.4836 112.51 15.0346 112.547 15.5839C112.524 16.1449 112.621 16.7043 112.83 17.226C113.039 17.7477 113.356 18.22 113.761 18.6125C114.165 19.0049 114.649 19.3087 115.179 19.5042C115.71 19.6998 116.276 19.7826 116.841 19.7474C118.382 19.6501 119.831 18.9889 120.907 17.8921L122.32 20.2455C121.574 21.0258 120.674 21.6455 119.676 22.066C118.678 22.4864 117.603 22.6987 116.518 22.6895C115.55 22.7431 114.581 22.5982 113.672 22.2638C112.762 21.9294 111.932 21.4126 111.234 20.7458C110.535 20.079 109.982 19.2765 109.61 18.3883C109.238 17.5002 109.055 16.5455 109.071 15.5839C109.065 14.6173 109.259 13.6597 109.641 12.7702C110.023 11.8807 110.584 11.0783 111.291 10.4126C111.998 9.74677 112.835 9.23173 113.75 8.89925C114.665 8.56676 115.64 8.4239 116.613 8.47947Z" fill="#BEBEBE"/>
<path d="M131.324 13.8689H131.735V13.7783C131.735 11.8324 130.958 11.1079 129.222 11.1079C128.583 11.1079 127.395 11.289 127.395 12.0135V12.738H124.242V11.2815C124.242 8.74696 127.851 8.47852 129.268 8.47852C133.834 8.47852 135.207 10.8319 135.207 13.9098V18.9768C135.2 19.0557 135.211 19.135 135.239 19.2093C135.267 19.2836 135.31 19.3511 135.367 19.407C135.423 19.463 135.491 19.5062 135.566 19.5335C135.641 19.5608 135.721 19.5717 135.8 19.5654H136.897V22.4179H133.836C132.556 22.4179 132.097 21.7388 132.097 20.9248C132.094 20.7277 132.109 20.5307 132.142 20.3362H132.097C131.705 21.0868 131.107 21.7111 130.37 22.136C129.634 22.5609 128.791 22.7687 127.939 22.7349C125.473 22.7349 123.28 21.1965 123.28 18.4808C123.192 14.2257 129.085 13.8689 131.324 13.8689ZM128.674 20.0688C130.502 20.0688 131.781 18.1682 131.781 16.494V16.177H131.188C129.406 16.177 126.574 16.4034 126.574 18.304C126.586 18.5597 126.651 18.8101 126.765 19.0396C126.88 19.2691 127.04 19.4728 127.237 19.638C127.434 19.8032 127.664 19.9264 127.911 19.9998C128.158 20.0731 128.418 20.0952 128.674 20.0645V20.0688Z" fill="#BEBEBE"/>
<path d="M139.136 12.2813C139.147 12.2016 139.138 12.1206 139.112 12.0445C139.086 11.9685 139.043 11.8994 138.985 11.8425C138.928 11.7857 138.858 11.7427 138.782 11.7167C138.705 11.6907 138.623 11.6825 138.543 11.6927H137.446V8.79702H140.553C141.787 8.79702 142.38 9.29509 142.38 10.4713V11.241C142.381 11.5291 142.366 11.8171 142.335 12.1035H142.38C142.634 11.1396 143.193 10.2816 143.973 9.65468C144.754 9.02781 145.717 8.66495 146.72 8.61914C146.934 8.62349 147.147 8.6386 147.359 8.66442V12.014C147.087 11.9838 146.812 11.9687 146.538 11.9687C145.683 11.9665 144.852 12.2451 144.174 12.761C143.496 13.2769 143.01 14.0011 142.791 14.8202C142.602 15.5442 142.51 16.2898 142.517 17.0378V22.4281H139.136V12.2813Z" fill="#BEBEBE"/>
<path d="M154.121 8.48047C157.091 8.48047 158.095 10.1547 158.095 10.1547H158.141C158.11 9.8841 158.095 9.612 158.095 9.3397V6.94099C158.105 6.86127 158.097 6.78026 158.071 6.7042C158.045 6.62814 158.001 6.55904 157.944 6.5022C157.887 6.44537 157.817 6.40231 157.74 6.37634C157.664 6.35036 157.582 6.34216 157.502 6.35237H156.405V3.50195H159.649C160.928 3.50195 161.476 4.04099 161.476 5.31203V18.9798C161.47 19.0587 161.481 19.138 161.508 19.2123C161.536 19.2866 161.579 19.3541 161.636 19.4101C161.692 19.4661 161.76 19.5092 161.835 19.5365C161.91 19.5639 161.99 19.5748 162.07 19.5684H163.121V22.4199H159.968C158.734 22.4199 158.278 21.8313 158.278 21.0184V20.5203C157.828 21.2378 157.192 21.8222 156.437 22.2123C155.681 22.6024 154.834 22.784 153.984 22.7379C150.287 22.7379 147.862 19.8412 147.862 15.6324C147.862 11.2867 150.471 8.48047 154.121 8.48047ZM158.186 15.586C158.186 13.459 157.09 11.4225 154.805 11.4225C152.932 11.4225 151.379 12.9609 151.379 15.627C151.379 18.2068 152.75 19.8811 154.76 19.8811C156.497 19.8886 158.19 18.5723 158.19 15.586H158.186Z" fill="#BEBEBE"/>
<path d="M165.589 18.0742C166.648 19.2399 168.122 19.9535 169.7 20.0654C170.751 20.0654 171.573 19.6579 171.573 18.7534C171.573 16.8528 164.355 16.8528 164.355 12.4629C164.355 9.7472 166.821 8.48047 169.7 8.48047C171.573 8.48047 174.498 9.11437 174.498 11.2834V12.6849H171.482V12.0058C171.482 11.3719 170.522 11.0549 169.743 11.0549C168.509 11.0549 167.687 11.4624 167.687 12.2764C167.687 14.4034 174.997 14.0013 174.997 18.5216C174.997 21.1014 172.714 22.6851 169.743 22.6851C168.67 22.7013 167.607 22.4919 166.623 22.0706C165.638 21.6493 164.755 21.0258 164.032 20.2411L165.589 18.0742Z" fill="#BEBEBE"/>
<path d="M18.0849 22.9402C17.9485 22.9459 17.8126 22.9208 17.6875 22.8666C17.5624 22.8124 17.4514 22.7307 17.363 22.6276C17.1678 22.431 17.0584 22.1661 17.0584 21.8902C17.0584 21.6143 17.1678 21.3494 17.363 21.1528L27.8224 10.6093C28.04 10.4012 28.2123 10.1512 28.3286 9.87451C28.4449 9.59786 28.5028 9.3005 28.4986 9.0008C28.5024 8.70783 28.4442 8.41733 28.3277 8.14807C28.2113 7.8788 28.0391 7.63677 27.8224 7.43759L23.0868 2.79112C22.6698 2.37616 22.1076 2.13641 21.517 2.12164C21.2212 2.11783 20.9279 2.17554 20.6561 2.29104C20.3842 2.40654 20.1397 2.57726 19.9384 2.7922L11.9501 10.5651C11.5377 10.9918 11.3075 11.5599 11.3075 12.1509C11.3075 12.7419 11.5377 13.3101 11.9501 13.7368L14.2951 16.06C14.4839 16.2574 14.5876 16.5201 14.5839 16.7922C14.5803 17.0642 14.4696 17.3241 14.2755 17.5165C14.0814 17.7088 13.8193 17.8183 13.5449 17.8218C13.2705 17.8252 13.0057 17.7222 12.8068 17.5348L10.4629 15.2115C10.0558 14.8107 9.73269 14.334 9.51221 13.8088C9.29173 13.2836 9.17822 12.7203 9.17822 12.1515C9.17822 11.5826 9.29173 11.0193 9.51221 10.4941C9.73269 9.96892 10.0558 9.49218 10.4629 9.09135L18.399 1.2732C18.8013 0.873393 19.2796 0.556856 19.8063 0.341985C20.333 0.127114 20.8975 0.0181958 21.467 0.02156C22.6283 0.0229609 23.7438 0.471296 24.5784 1.27212L29.2683 5.9186C29.6754 6.31942 29.9985 6.79616 30.219 7.32135C30.4395 7.84655 30.553 8.40981 30.553 8.97869C30.553 9.54758 30.4395 10.1108 30.219 10.636C29.9985 11.1612 29.6754 11.638 29.2683 12.0388L18.8502 22.6265C18.6372 22.8123 18.368 22.9227 18.0849 22.9402Z" fill="#C8C8C8"/>
<path d="M15.2435 25.6666C15.1011 25.6684 14.9598 25.6416 14.8281 25.5879C14.6964 25.5342 14.577 25.4546 14.4771 25.354L1.26285 12.0851C0.446886 11.2636 -0.00738779 10.1548 -0.000409047 9.0018C0.00140672 7.85077 0.454401 6.74553 1.26285 5.9196L5.99846 1.27313C6.40344 0.869624 6.88481 0.549435 7.41494 0.330953C7.94507 0.112471 8.5135 0 9.08758 0C9.66167 0 10.2301 0.112471 10.7602 0.330953C11.2904 0.549435 11.7717 0.869624 12.1767 1.27313L13.2639 2.34581C13.3657 2.44177 13.4471 2.55699 13.5034 2.68466C13.5596 2.81234 13.5895 2.94988 13.5912 3.08919C13.593 3.22849 13.5666 3.36674 13.5136 3.49577C13.4607 3.62481 13.3822 3.74202 13.2828 3.8405C13.1834 3.93897 13.0652 4.01672 12.935 4.06915C12.8049 4.12159 12.6654 4.14764 12.525 4.14579C12.3845 4.14394 12.2458 4.11421 12.1171 4.05836C11.9884 4.00251 11.8723 3.92167 11.7756 3.8206L10.6427 2.749C10.4346 2.53695 10.1857 2.3684 9.91072 2.25331C9.63577 2.13822 9.34036 2.07893 9.04192 2.07893C8.74349 2.07893 8.44808 2.13822 8.17313 2.25331C7.89818 2.3684 7.64928 2.53695 7.4411 2.749L2.79573 7.4386C2.37486 7.85329 2.13248 8.4136 2.11952 9.0018C2.11572 9.29477 2.17394 9.58527 2.29042 9.85453C2.4069 10.1238 2.57904 10.3658 2.79573 10.565L16.01 23.835C16.2052 24.0316 16.3146 24.2964 16.3146 24.5724C16.3146 24.8483 16.2052 25.1131 16.01 25.3098C15.9186 25.4238 15.8019 25.5154 15.669 25.5773C15.536 25.6392 15.3904 25.6698 15.2435 25.6666Z" fill="#BEBEBE"/>
</g>
<defs>
<clipPath id="clip0_4169_2559">
<rect width="175" height="25.6667" fill="white" transform="translate(-0.000976562)"/>
</clipPath>
</defs>
</svg>
