<svg width="175" height="41" viewBox="0 0 175 41" fill="none" xmlns="http://www.w3.org/2000/svg">
<g clip-path="url(#clip0_4169_2540)">
<path d="M152.029 20.4167C152.029 13.9596 156.969 9.40889 163.515 9.40889C170.06 9.40889 175 13.9596 175 20.4167C175 26.7508 170.06 31.4244 163.515 31.4244C156.969 31.4244 152.029 26.8122 152.029 20.4167ZM168.516 20.4167C168.516 17.4034 166.602 15.1895 163.576 15.1895C160.551 15.1895 158.636 17.4034 158.636 20.4167C158.636 23.43 160.551 25.6438 163.576 25.6438C166.602 25.6438 168.516 23.4915 168.516 20.4167ZM147.707 15.3125C148.139 16.1734 148.324 17.0959 148.324 18.0798C148.324 20.4167 147.089 22.569 145.113 24.2294C147.83 25.5208 149.436 28.6571 149.436 31.6089C149.436 37.1436 144.928 40.8333 138.074 40.8333C131.219 40.8333 126.712 37.2051 126.712 31.6089C126.712 28.5956 128.317 25.5823 131.034 24.2294C128.996 22.569 127.823 20.4167 127.823 18.0798C127.823 13.2216 131.652 9.65487 137.703 9.65487C141.285 9.65487 142.334 10.2698 144.372 10.2698C145.731 10.2698 146.657 10.0853 148.324 9.2244C148.88 8.91692 149.312 8.79393 149.683 8.79393C150.485 8.79393 150.918 9.59337 150.918 10.5773C150.979 12.7297 149.991 14.5131 147.707 15.3125ZM143.075 31.4244C143.075 28.9646 141.161 27.2427 138.135 27.2427C135.11 27.2427 133.195 28.9031 133.195 31.4244C133.195 33.7613 135.295 35.6062 138.135 35.6062C140.914 35.6062 143.075 33.7613 143.075 31.4244ZM134.122 18.4488C134.122 20.5397 135.912 22.2 138.074 22.2C140.297 22.2 142.026 20.5397 142.026 18.4488C142.026 16.2349 140.42 14.6975 138.074 14.6975C135.789 14.6975 134.122 16.1734 134.122 18.4488ZM123.748 20.8471V28.5341C123.748 30.01 123.192 30.625 121.586 30.625H119.425C117.82 30.625 117.264 30.01 117.264 28.5341V21.0316C117.264 19.1253 116.955 17.7723 116.276 16.9114C115.535 15.989 114.423 15.497 113.003 15.497C111.645 15.497 110.41 15.989 109.607 16.9114C108.866 17.7723 108.372 19.1252 108.372 20.9701V28.4726C108.372 30.01 107.754 30.5635 106.211 30.5635H104.049C102.567 30.5635 101.888 30.01 101.888 28.4726V11.2538C101.888 10.2698 102.382 9.83936 103.123 9.83936C104.235 9.83936 105.778 10.7618 106.952 12.5452C108.681 10.5158 111.336 9.47038 113.929 9.47038C117.079 9.47038 119.61 10.5773 121.278 12.4222C122.945 14.3286 123.748 16.7884 123.748 20.8471ZM90.032 3.50527C90.032 1.5374 91.6375 0 93.737 0C95.713 0 97.442 1.5374 97.442 3.50527C97.442 5.41165 95.713 7.01054 93.737 7.01054C91.6375 7.01054 90.032 5.41165 90.032 3.50527ZM90.4643 28.5341V12.3607C90.4643 10.8848 91.02 10.2698 92.6255 10.2698H94.7868C96.3923 10.2698 96.948 10.8848 96.948 12.3607V28.5341C96.948 30.01 96.3923 30.625 94.7868 30.625H92.6255C91.02 30.625 90.4643 30.01 90.4643 28.5341ZM79.0405 28.5341V8.24046C79.0405 3.13629 81.9427 0.245984 84.2892 0.245984C85.0302 0.245984 85.5242 0.737952 85.5242 1.66039V28.4726C85.5242 30.01 84.9067 30.5635 83.363 30.5635H81.2017C79.7197 30.625 79.0405 30.0715 79.0405 28.5341ZM52.3644 20.4167C52.3644 13.9596 57.3044 9.40889 63.8499 9.40889C70.3954 9.40889 75.3355 13.9596 75.3355 20.4167C75.3355 26.7508 70.3954 31.4244 63.8499 31.4244C57.3044 31.4244 52.3644 26.8122 52.3644 20.4167ZM68.7899 20.4167C68.7899 17.4034 66.8757 15.1895 63.8499 15.1895C60.8242 15.1895 58.9099 17.4034 58.9099 20.4167C58.9099 23.43 60.8242 25.6438 63.8499 25.6438C66.8757 25.6438 68.7899 23.4915 68.7899 20.4167ZM49.0299 12.3607V29.5796C49.0299 30.5635 48.5359 30.994 47.7949 30.994C46.6834 30.994 45.1396 30.0715 44.0281 28.3496C42.4226 30.256 39.9526 31.363 37.1739 31.363C34.3951 31.363 32.1721 30.379 30.5048 28.9031C28.5906 27.0582 27.5408 24.2294 27.5408 20.1707V12.3607C27.5408 10.8848 28.0966 10.2698 29.7021 10.2698H31.8633C33.4688 10.2698 34.0246 10.8848 34.0246 12.3607V19.6172C34.0246 22.0771 34.4568 23.3685 35.2596 24.2294C35.9388 24.9674 36.9268 25.3363 38.1619 25.3363C39.3969 25.3363 40.5701 24.8444 41.2494 24.0449C42.0521 23.184 42.4844 21.8311 42.4844 19.7402V12.3607C42.4844 10.8233 43.1019 10.2698 44.6456 10.2698H46.8069C48.3506 10.2083 49.0299 10.8233 49.0299 12.3607ZM23.0948 1.66039V29.5796C23.0948 30.5635 22.6008 30.994 21.8598 30.994C20.7483 30.994 19.2045 30.0715 18.093 28.4111C16.7345 30.01 13.9558 31.4244 10.7448 31.4244C4.32276 31.4244 0.000244141 26.7508 0.000244141 20.4167C0.000244141 14.2056 4.38451 9.40889 10.7448 9.40889C13.0913 9.40889 15.129 10.1468 16.6728 11.1923V8.24046C16.6728 3.13629 19.5751 0.245984 21.9216 0.245984C22.6626 0.245984 23.0948 0.737952 23.0948 1.66039ZM16.6728 20.4167C16.6728 17.2804 14.4498 15.1895 11.671 15.1895C8.83052 15.1895 6.60751 17.2804 6.60751 20.4167C6.60751 23.553 8.83052 25.6438 11.671 25.6438C14.4498 25.6438 16.6728 23.6145 16.6728 20.4167Z" fill="#C8C8C8"/>
</g>
<defs>
<clipPath id="clip0_4169_2540">
<rect width="175" height="40.8333" fill="white" transform="translate(0.000244141)"/>
</clipPath>
</defs>
</svg>
