<svg width="337" height="387" viewBox="0 0 337 387" fill="none" xmlns="http://www.w3.org/2000/svg">
<rect x="2" y="188.684" width="111" height="198" fill="#F2E7DB"/>
<rect width="37" height="115" transform="matrix(1 0 0 -1 0 187.683)" fill="#CB8461"/>
<rect width="56" height="111" transform="matrix(1 0 0 -1 114 299.683)" fill="#CB8461"/>
<rect width="56" height="55" transform="matrix(1 0 0 -1 170 299.683)" fill="#14463A"/>
<rect width="110" height="86" transform="matrix(1 0 0 -1 227 386.683)" fill="#347366"/>
<circle cx="57.5" cy="287.683" r="55.5" fill="#14463A"/>
<path d="M113 130.684C103.02 130.684 93.1368 132.158 83.9161 135.023C74.6953 137.887 66.3171 142.086 59.2599 147.379C52.2026 152.672 46.6045 158.955 42.7852 165.871C38.9658 172.786 37 180.198 37 187.684L113 187.684V130.684Z" fill="white"/>
<path d="M114.5 386.683C129.142 386.683 143.641 384.472 157.169 380.175C170.697 375.878 182.989 369.58 193.342 361.641C203.696 353.702 211.909 344.276 217.513 333.903C223.116 323.529 226 312.411 226 301.183H114.5L114.5 386.683Z" fill="white"/>
<circle cx="75" cy="15.6829" r="15" fill="#14463A"/>
</svg>
