<svg width="1440" height="480" viewBox="0 0 1440 480" fill="none" xmlns="http://www.w3.org/2000/svg">
<mask id="mask0_4351_1224" style="mask-type:alpha" maskUnits="userSpaceOnUse" x="0" y="2" width="1440" height="477">
<rect y="2.99854" width="1440" height="476" fill="#F2E7DB"/>
</mask>
<g mask="url(#mask0_4351_1224)">
<rect y="2.99854" width="1440" height="476" fill="#F2E7DB"/>
<rect x="226.5" y="-95.501" width="111" height="980" stroke="#CB8461" stroke-opacity="0.05"/>
<rect x="113.5" y="-95.501" width="113" height="980" stroke="#CB8461" stroke-opacity="0.05"/>
<rect x="36.4998" y="-95.501" width="77" height="980" stroke="#CB8461" stroke-opacity="0.05"/>
<rect x="-36.5" y="-95.501" width="73" height="980" stroke="#CB8461" stroke-opacity="0.05"/>
<rect x="-36.5001" y="-23.501" width="756" height="76" stroke="#CB8461" stroke-opacity="0.05"/>
<rect x="-36.5001" y="52.4985" width="756" height="113" stroke="#CB8461" stroke-opacity="0.05"/>
<rect x="-36.5001" y="165.499" width="756" height="115" stroke="#CB8461" stroke-opacity="0.05"/>
<rect x="-36.5001" y="280.498" width="756" height="112" stroke="#CB8461" stroke-opacity="0.05"/>
<rect x="-36.5001" y="392.499" width="756" height="112" stroke="#CB8461" stroke-opacity="0.05"/>
<rect x="337.501" y="-95.501" width="115" height="980" stroke="#CB8461" stroke-opacity="0.05"/>
<rect x="452.499" y="-95.501" width="113" height="980" stroke="#CB8461" stroke-opacity="0.05"/>
<rect x="565.5" y="-95.501" width="77" height="980" stroke="#CB8461" stroke-opacity="0.05"/>
<rect x="642.5" y="-95.501" width="77" height="980" stroke="#CB8461" stroke-opacity="0.05"/>
<rect x="982.5" y="-95.501" width="111" height="980" stroke="#CB8461" stroke-opacity="0.05"/>
<rect x="869.5" y="-95.501" width="113" height="980" stroke="#CB8461" stroke-opacity="0.05"/>
<rect x="792.5" y="-95.501" width="77" height="980" stroke="#CB8461" stroke-opacity="0.05"/>
<rect x="719.5" y="-95.501" width="73" height="980" stroke="#CB8461" stroke-opacity="0.05"/>
<rect x="719.5" y="-23.501" width="756" height="76" stroke="#CB8461" stroke-opacity="0.05"/>
<rect x="719.5" y="52.4985" width="756" height="113" stroke="#CB8461" stroke-opacity="0.05"/>
<rect x="719.5" y="165.499" width="756" height="115" stroke="#CB8461" stroke-opacity="0.05"/>
<rect x="719.5" y="280.498" width="756" height="112" stroke="#CB8461" stroke-opacity="0.05"/>
<rect x="719.5" y="392.499" width="756" height="112" stroke="#CB8461" stroke-opacity="0.05"/>
<rect x="1093.5" y="-95.501" width="115" height="980" stroke="#CB8461" stroke-opacity="0.05"/>
<rect x="1208.5" y="-95.501" width="113" height="980" stroke="#CB8461" stroke-opacity="0.05"/>
<rect x="1321.5" y="-95.501" width="77" height="980" stroke="#CB8461" stroke-opacity="0.05"/>
<rect x="1398.5" y="-95.501" width="77" height="980" stroke="#CB8461" stroke-opacity="0.05"/>
</g>
</svg>
