<svg width="16" height="22" viewBox="0 0 16 22" fill="none" xmlns="http://www.w3.org/2000/svg">
<path d="M8.00098 5.45901C10.1227 5.45901 12.1575 6.30186 13.6578 7.80215C15.1581 9.30244 16.001 11.3373 16.001 13.459C16.001 15.5807 15.1581 17.6156 13.6578 19.1159C12.1575 20.6161 10.1227 21.459 8.00098 21.459C5.87924 21.459 3.84441 20.6161 2.34412 19.1159C0.843831 17.6156 0.000976563 15.5807 0.000976562 13.459C0.000976562 11.3373 0.843831 9.30244 2.34412 7.80215C3.84441 6.30186 5.87924 5.45901 8.00098 5.45901ZM8.00098 8.95901L6.67798 11.639L3.72098 12.069L5.86098 14.154L5.35598 17.1L8.00098 15.709L10.646 17.099L10.141 14.154L12.281 12.068L9.32398 11.638L8.00098 8.95901ZM9.00098 0.458008L14.001 0.459008V3.45901L12.638 4.59701C11.5069 4.00359 10.272 3.63384 9.00098 3.50801V0.459008V0.458008ZM7.00098 0.458008V3.50801C5.73032 3.63365 4.4958 4.00306 3.36498 4.59601L2.00098 3.45901V0.459008L7.00098 0.458008Z" fill="#245D51"/>
</svg>
