<svg width="175" height="38" viewBox="0 0 175 38" fill="none" xmlns="http://www.w3.org/2000/svg">
<path d="M37.2767 0.639648H0.655762V37.2597H37.2767V0.639648Z" fill="#BEBEBE"/>
<path d="M14.2593 9.43555V28.4655L30.7376 18.9501L14.2593 9.43555ZM15.8369 12.1666L27.5823 18.9501L15.8369 25.7309V12.1666Z" fill="white"/>
<path d="M10.4678 11.5137L23.3488 18.9503L10.4678 26.3869V11.5137ZM12.0454 14.2447V23.6567L20.1971 18.9503L12.0454 14.2447Z" fill="white"/>
<path d="M47.1978 13.9901H51.1096C53.4191 13.9901 54.8801 15.3088 54.8801 17.308V17.3354C54.8801 19.5592 53.0947 20.7223 50.9125 20.7223H48.9416V23.913H47.1978V13.9901V13.9901ZM50.9682 19.1482C52.2869 19.1482 53.1089 18.4128 53.1089 17.377V17.3496C53.1089 16.1891 52.2736 15.5784 50.9682 15.5784H48.9416V19.1491H50.9682V19.1482V19.1482ZM59.2091 13.9901H60.9529V22.3247H66.1729V23.913H59.2091V13.9901ZM70.0874 19.7041V13.9901H71.8312V19.6316C71.8312 21.4753 72.7813 22.4661 74.3413 22.4661C75.888 22.4661 76.8382 21.5301 76.8382 19.7041V13.9901H78.5811V19.6175C78.5811 22.5801 76.9071 24.0676 74.3139 24.0676C71.7313 24.0676 70.0883 22.5801 70.0883 19.7041H70.0874ZM83.5182 13.9901H87.9409C89.1907 13.9901 90.1682 14.3595 90.8063 14.9809C91.3313 15.52 91.6283 16.2589 91.6283 17.1215V17.1525C91.6283 18.7823 90.6508 19.7598 89.2596 20.1566L91.9385 23.913H89.8854L87.4478 20.4536H85.2629V23.913H83.5191V13.9901H83.5182ZM87.8137 18.9104C89.0634 18.9104 89.8571 18.2573 89.8571 17.2488V17.2223C89.8571 16.1582 89.0908 15.5784 87.8031 15.5784H85.262V18.9104H87.8137ZM99.8286 13.9176H101.443L105.808 23.913H103.968L102.96 21.5169H98.2668L97.2486 23.9121H95.4606L99.8277 13.9176H99.8286V13.9176ZM102.321 19.9702L100.608 16.0026L98.9058 19.9702H102.321ZM110.055 13.9901H111.794V22.3247H117.015V23.913H110.055V13.9901ZM120.705 22.4661L121.755 21.2199C122.704 22.0419 123.653 22.5077 124.886 22.5077C125.964 22.5077 126.643 22.0136 126.643 21.2614V21.2332C126.643 20.5226 126.246 20.1425 124.406 19.7183C122.294 19.2065 121.103 18.5816 121.103 16.7556V16.7247C121.103 15.0224 122.521 13.8487 124.489 13.8487C125.935 13.8487 127.082 14.2871 128.09 15.0949L127.154 16.4136C126.263 15.7472 125.369 15.3954 124.461 15.3954C123.439 15.3954 122.845 15.9169 122.845 16.5691V16.5965C122.845 17.3637 123.298 17.7049 125.2 18.1574C127.296 18.6683 128.387 19.4178 128.387 21.0643V21.0917C128.387 22.9496 126.926 24.0544 124.845 24.0544C123.329 24.0544 121.896 23.5294 120.705 22.4661V22.4661ZM133.089 13.9901H134.833V23.913H133.089V13.9901ZM139.591 18.9794V18.9511C139.591 16.1723 141.717 13.8213 144.707 13.8213C146.437 13.8213 147.5 14.3012 148.522 15.1674L147.414 16.4825C146.651 15.8338 145.898 15.4193 144.635 15.4193C142.808 15.4193 141.417 17.0252 141.417 18.9237V18.9511C141.417 20.9919 142.763 22.497 144.789 22.497C145.729 22.497 146.578 22.1965 147.186 21.7449V19.8871H144.649V18.3678H148.874V22.5386C147.897 23.3738 146.492 24.0818 144.735 24.0818C141.631 24.0818 139.591 21.8722 139.591 18.9794V18.9794ZM153.684 13.9901H155.43V18.1159H160.164V13.9901H161.907V23.913H160.164V19.7324H155.43V23.913H153.684V13.9901Z" fill="#C8C8C8"/>
<path d="M166.292 13.9902V15.6059H169.441V23.9131H171.198V15.6059H174.344V13.9902H166.292Z" fill="#C8C8C8"/>
</svg>
