<svg width="175" height="28" viewBox="0 0 175 28" fill="none" xmlns="http://www.w3.org/2000/svg">
<g clip-path="url(#clip0_4169_2548)">
<path d="M87.9557 9.35574C88.0627 7.29949 88.7999 5.61916 89.952 4.30828V2.56152H88.4208C85.3259 2.56152 82.7057 3.74763 81.1826 6.42773H81.0935V2.85643H73.1553V24.6358H81.0951V15.8437C81.0951 12.112 82.1872 9.26662 86.593 9.26662C87.0726 9.26986 87.5215 9.2974 87.9557 9.35574Z" fill="#C8C8C8"/>
<path d="M148.069 9.27503C148.729 7.35003 149.798 5.63568 151.188 4.25998V2.55859H149.66C146.564 2.55859 143.947 3.7447 142.416 6.42318H142.33V2.85512H134.387V24.6345H142.33V15.8424C142.33 12.1107 143.425 9.26531 147.831 9.26531L148.069 9.27503Z" fill="#C8C8C8"/>
<path d="M104.08 8.45843C102.855 7.82162 101.15 7.39708 99.7941 7.39708C98.8835 7.39708 97.3101 7.77625 97.3101 8.88296C97.3101 10.3705 99.7941 10.5811 100.893 10.7982C104.594 11.5177 107.394 13.2175 107.394 17.2457C107.394 22.9753 102.025 25.3605 96.8288 25.3605C93.6416 25.3605 90.5061 24.4677 87.7969 22.8538L90.6763 17.458C92.2885 18.5663 94.9946 19.6665 96.9585 19.6665C97.9631 19.6665 99.4457 19.2015 99.4457 18.0121C99.4457 16.314 96.9585 16.2249 94.4679 15.5897C91.9839 14.9529 89.4999 13.7668 89.4999 9.86005C89.4999 4.50958 94.4679 2.13574 99.3647 2.13574C101.896 2.13574 104.428 2.51653 106.736 3.53574L104.08 8.45843Z" fill="#C8C8C8"/>
<path d="M175 24.6365H167.06V22.2141H166.973C165.576 24.3789 162.821 25.3543 160.208 25.3543C153.571 25.3543 148.906 19.9617 148.906 13.7201C148.906 7.48489 153.488 2.13281 160.119 2.13281C162.692 2.13281 165.401 3.06615 167.059 4.97494V2.85712H174.997L175 24.6365ZM157.11 13.7671C157.11 16.5249 158.989 18.6476 162.214 18.6476C165.442 18.6476 167.313 16.5282 167.313 13.7671C167.313 11.0918 165.442 8.84277 162.214 8.84277C158.989 8.84439 157.11 11.0918 157.11 13.7671Z" fill="#C8C8C8"/>
<path d="M133.135 15.042H116.418C116.418 18.1806 118.124 19.8772 121.395 19.8772C123.097 19.8772 124.317 19.3279 125.192 17.8825H132.83C131.565 23.0207 126.545 25.3556 121.441 25.3556C114.028 25.3556 108.486 21.2772 108.486 13.7668C108.486 6.5075 113.585 2.13574 120.872 2.13574C128.638 2.13574 133.138 6.80727 133.138 14.2334L133.135 15.042ZM125.759 10.5811C125.365 8.50056 123.401 7.14269 121.266 7.14269C118.95 7.14269 117.038 8.32718 116.55 10.5811H125.759Z" fill="#C8C8C8"/>
<path d="M47.8993 13.3853C47.8912 13.1973 47.8782 13.0142 47.8636 12.8279C47.8636 12.8279 47.8636 12.8262 47.8636 12.8246C47.8636 12.8246 47.8636 12.823 47.8636 12.8214C47.6854 10.8008 47.0178 8.9098 45.8852 7.20192C45.3796 6.44035 44.8011 5.74845 44.1546 5.12785C43.2099 4.21882 42.1162 3.46697 40.8831 2.87229C39.0278 1.98595 36.978 1.53873 34.7905 1.53873C34.5766 1.53873 34.353 1.54197 34.1278 1.55007C32.5916 1.61975 31.1058 1.91141 29.709 2.42507C28.3009 2.93387 27.0743 3.60632 26.0713 4.41327C25.8671 4.5753 25.6451 4.77461 25.4069 4.99336L25.2352 5.16188L25.0002 5.41141H25.0018H25.0034L24.8933 5.51998L24.8398 5.57831L24.5595 5.87322C24.3521 6.10655 24.1544 6.33989 23.9696 6.56836L23.968 6.56512L23.9615 6.55864C23.5775 7.0253 23.2227 7.50817 22.9618 7.94243C22.7852 8.22114 22.6118 8.50794 22.4465 8.79475L20.1569 13.4241L20.1602 13.4274L20.0403 13.6623L19.7875 14.1744C19.2852 15.1904 18.7472 16.2031 18.146 17.0392C16.806 18.5089 15.2909 19.2283 13.3433 19.2283C13.2071 19.2283 13.0678 19.2218 12.9252 19.2137C11.7521 19.1667 10.7458 18.8897 9.85298 18.3614C9.75738 18.3047 9.66502 18.2464 9.5759 18.1864C8.84673 17.7019 8.28771 17.0797 7.86965 16.3035C7.39812 15.4237 7.1891 14.5244 7.21826 13.5716C7.21988 13.5457 7.2215 13.523 7.2215 13.5019C7.2847 11.9853 7.86317 10.8056 9.02822 9.78642C9.31178 9.54174 9.60831 9.33433 9.9178 9.14961C9.96155 9.12368 10.0053 9.09938 10.049 9.07669C10.9143 8.60517 11.8995 8.37021 13.0289 8.37021L13.3805 8.37993C15.1743 8.44799 16.5581 9.00864 17.6615 10.1024L21.1227 3.88827C20.2946 3.3341 19.3597 2.85771 18.3291 2.47044C18.2903 2.45586 18.2497 2.43966 18.2092 2.42669C18.0861 2.38294 17.9646 2.33757 17.8382 2.29706C16.7428 1.93086 15.594 1.70563 14.4111 1.60354C14.3819 1.59868 14.3495 1.59544 14.3203 1.5922C14.1389 1.58086 13.9541 1.55817 13.7727 1.55007C13.575 1.54197 13.3757 1.53873 13.1812 1.53711H13.0694C10.8933 1.54521 8.87104 1.99081 7.0222 2.87392C4.95136 3.87206 3.27266 5.32554 2.02822 7.19868C0.787013 9.07183 0.109699 11.1508 0.0124764 13.382C0.00437456 13.5732 -0.000486553 13.7628 -0.000486553 13.9491C-0.00210692 17.07 1.13539 19.8149 3.39743 22.1191C5.75831 24.5366 8.82891 25.8394 12.5153 25.9934C12.7518 26.0031 12.9852 26.0096 13.2185 26.0096C15.3039 26.0096 17.2338 25.6385 18.9643 24.8964C19.397 24.7116 19.8166 24.4945 20.246 24.2531C20.4794 24.1186 20.6997 23.976 20.9185 23.8237L21.0805 23.7151L21.3528 23.5288C21.6801 23.2938 21.9863 23.0394 22.2845 22.7688L22.3882 22.67C22.5632 22.5031 22.7382 22.3346 22.9034 22.1612L23.524 21.4596L23.7606 21.163L23.8708 21.001L23.981 20.8422C24.903 19.2931 27.9039 13.6559 27.9039 13.6559V13.6445L28.0821 13.301L28.2312 13.032C28.6736 12.2267 28.9928 11.6547 29.4157 11.0535L29.4271 11.0357C30.4139 9.60493 32.1104 8.58572 34.1099 8.41396C37.4641 8.12554 40.4034 10.3292 40.674 13.3366C40.943 16.3441 38.4412 19.016 35.087 19.3061C34.3886 19.366 33.7097 19.3191 33.0696 19.1781L33.0534 19.1846C30.5921 18.6725 29.0252 16.8772 28.2523 16.0751L25.0245 22.0105C25.0245 22.0105 26.0275 23.0216 26.7146 23.5272C27.4032 24.0311 28.2928 24.5269 29.0025 24.8348C30.725 25.5704 32.5981 26.0112 34.6673 26.0112C34.9072 26.0112 34.8585 26.0112 35.1081 26.0015C38.7912 25.8475 42.074 24.4362 44.4414 22.0186C46.684 19.7225 47.9009 17.1008 47.9122 13.9978V13.9054C47.9106 13.7336 47.9058 13.5603 47.8993 13.3853Z" fill="#C8C8C8"/>
<path d="M60.2466 25.3695C58.5728 25.3695 57.0545 25.1751 55.6918 24.7862C54.329 24.3973 53.1656 23.7832 52.2015 22.9406C51.2341 22.098 50.4888 21.0253 49.9638 19.7241C49.4388 18.423 49.1763 16.8545 49.1763 15.0267V2.84961H56.8358V14.9295C56.8358 16.2987 57.1631 17.2904 57.8161 17.9093C58.4707 18.5299 59.302 18.8394 60.3098 18.8394C61.3404 18.8394 62.1765 18.551 62.8214 17.9725C63.4631 17.3941 63.7872 16.4348 63.7872 15.0866V2.84961H71.4466V14.8663C71.4466 16.7589 71.1777 18.3679 70.6413 19.6917C70.105 21.0172 69.3483 22.0996 68.3744 22.9422C67.3957 23.7848 66.2177 24.3973 64.8323 24.7878C63.4469 25.1751 61.9189 25.3695 60.2466 25.3695Z" fill="#C8C8C8"/>
</g>
<defs>
<clipPath id="clip0_4169_2548">
<rect width="175" height="27.5463" fill="white"/>
</clipPath>
</defs>
</svg>
