<svg width="21" height="21" viewBox="0 0 21 21" fill="none" xmlns="http://www.w3.org/2000/svg">
<path d="M14.1878 8.02564C14.2759 7.94422 14.3469 7.8464 14.3969 7.73775C14.4468 7.62911 14.4747 7.51178 14.4789 7.39246C14.4831 7.27313 14.4636 7.15416 14.4214 7.04232C14.3793 6.93048 14.3153 6.82797 14.2332 6.74064C14.1511 6.65331 14.0525 6.58287 13.9429 6.53335C13.8334 6.48382 13.715 6.45618 13.5947 6.45201C13.4744 6.44783 13.3544 6.46719 13.2416 6.50899C13.1289 6.5508 13.0255 6.61422 12.9374 6.69564L10.2551 9.17564L7.75423 6.51473C7.58689 6.34477 7.35912 6.24651 7.11966 6.24097C6.8802 6.23543 6.64806 6.32306 6.47292 6.4851C6.29778 6.64714 6.19354 6.87072 6.18253 7.108C6.17151 7.34528 6.25458 7.57742 6.41397 7.75473L8.91481 10.4147L6.23154 12.8947C6.14036 12.9753 6.06635 13.0732 6.01384 13.1825C5.96133 13.2919 5.93139 13.4105 5.92577 13.5315C5.92016 13.6525 5.93898 13.7734 5.98113 13.8871C6.02328 14.0008 6.08791 14.1049 6.17123 14.1935C6.25455 14.2821 6.35488 14.3532 6.46632 14.4028C6.57775 14.4524 6.69806 14.4794 6.82016 14.4822C6.94227 14.485 7.06371 14.4636 7.17736 14.4192C7.291 14.3749 7.39456 14.3084 7.48196 14.2238L10.1643 11.7447L12.6651 14.4047C12.7459 14.4968 12.8445 14.5718 12.9551 14.6253C13.0657 14.6788 13.1861 14.7097 13.309 14.716C13.4318 14.7224 13.5548 14.7042 13.6704 14.6625C13.786 14.6207 13.892 14.5563 13.982 14.4731C14.072 14.3899 14.1442 14.2896 14.1943 14.1781C14.2444 14.0666 14.2713 13.9463 14.2735 13.8243C14.2757 13.7023 14.2531 13.5811 14.207 13.4679C14.1609 13.3548 14.0924 13.252 14.0054 13.1656L11.5055 10.5056L14.1878 8.02564Z" fill="#245D51"/>
<path fill-rule="evenodd" clip-rule="evenodd" d="M0.125977 10.4595C0.125977 4.93675 4.64087 0.459473 10.21 0.459473C15.7791 0.459473 20.294 4.93675 20.294 10.4595C20.294 15.9822 15.7791 20.4595 10.21 20.4595C4.64087 20.4595 0.125977 15.9822 0.125977 10.4595ZM10.21 18.6413C9.12653 18.6413 8.05366 18.4297 7.05265 18.0185C6.05165 17.6073 5.14211 17.0046 4.37597 16.2449C3.60984 15.4851 3.0021 14.5832 2.58747 13.5905C2.17284 12.5979 1.95944 11.5339 1.95944 10.4595C1.95944 9.38502 2.17284 8.32109 2.58747 7.32843C3.0021 6.33576 3.60984 5.43381 4.37597 4.67405C5.14211 3.9143 6.05165 3.31163 7.05265 2.90046C8.05366 2.48928 9.12653 2.27765 10.21 2.27765C12.3982 2.27765 14.4968 3.13966 16.044 4.67405C17.5913 6.20844 18.4606 8.28952 18.4606 10.4595C18.4606 12.6294 17.5913 14.7105 16.044 16.2449C14.4968 17.7793 12.3982 18.6413 10.21 18.6413Z" fill="#245D51"/>
</svg>
