<svg width="24" height="22" viewBox="0 0 24 22" fill="none" xmlns="http://www.w3.org/2000/svg">
<path d="M0.33252 2.11895C0.334655 1.81256 0.457237 1.5193 0.673785 1.30254C0.890333 1.08577 1.18346 0.962893 1.48985 0.960449H22.5085C23.1479 0.960449 23.6659 1.47962 23.6659 2.11895V20.8019C23.6637 21.1083 23.5411 21.4016 23.3246 21.6184C23.108 21.8351 22.8149 21.958 22.5085 21.9604H1.48985C1.1828 21.9601 0.888433 21.8379 0.671424 21.6207C0.454415 21.4035 0.332519 21.109 0.33252 20.8019V2.11895ZM7.33252 3.29378V19.6271H16.6659V3.29378H7.33252ZM2.66585 3.29378V5.62712H4.99919V3.29378H2.66585ZM18.9992 3.29378V5.62712H21.3325V3.29378H18.9992ZM2.66585 7.96045V10.2938H4.99919V7.96045H2.66585ZM18.9992 7.96045V10.2938H21.3325V7.96045H18.9992ZM2.66585 12.6271V14.9604H4.99919V12.6271H2.66585ZM18.9992 12.6271V14.9604H21.3325V12.6271H18.9992ZM2.66585 17.2938V19.6271H4.99919V17.2938H2.66585ZM18.9992 17.2938V19.6271H21.3325V17.2938H18.9992Z" fill="#CB8461"/>
</svg>
