<svg width="24" height="22" viewBox="0 0 24 22" fill="none" xmlns="http://www.w3.org/2000/svg">
<path d="M0.333984 2.11895C0.336119 1.81256 0.458701 1.5193 0.675249 1.30254C0.891797 1.08577 1.18493 0.962893 1.49132 0.960449H22.51C23.1493 0.960449 23.6673 1.47962 23.6673 2.11895V20.8019C23.6652 21.1083 23.5426 21.4016 23.3261 21.6184C23.1095 21.8351 22.8164 21.958 22.51 21.9604H1.49132C1.18427 21.9601 0.889897 21.8379 0.672889 21.6207C0.45588 21.4035 0.333984 21.109 0.333984 20.8019V2.11895ZM2.66732 3.29378V19.6271H21.334V3.29378H2.66732ZM10.393 7.27795L16.0852 11.0719C16.1492 11.1145 16.2017 11.1723 16.238 11.2401C16.2743 11.3079 16.2933 11.3836 16.2933 11.4604C16.2933 11.5373 16.2743 11.613 16.238 11.6808C16.2017 11.7486 16.1492 11.8063 16.0852 11.8489L10.3918 15.6429C10.3216 15.6895 10.2401 15.7162 10.156 15.7201C10.0719 15.7241 9.98824 15.7052 9.91396 15.6655C9.83969 15.6258 9.77754 15.5667 9.73412 15.4946C9.6907 15.4224 9.66761 15.3398 9.66732 15.2556V7.66528C9.66747 7.58087 9.69052 7.49809 9.734 7.42574C9.77749 7.3534 9.83978 7.2942 9.91424 7.25445C9.9887 7.21471 10.0726 7.1959 10.1569 7.20004C10.2412 7.20418 10.3228 7.2311 10.393 7.27795Z" fill="#CB8461"/>
</svg>
