<svg width="25" height="26" viewBox="0 0 25 26" fill="none" xmlns="http://www.w3.org/2000/svg">
<path d="M0.33252 25.1274C0.33252 22.6521 1.31585 20.2781 3.06619 18.5278C4.81653 16.7774 7.1905 15.7941 9.66585 15.7941C12.1412 15.7941 14.5152 16.7774 16.2655 18.5278C18.0159 20.2781 18.9992 22.6521 18.9992 25.1274H16.6659C16.6659 23.2709 15.9284 21.4904 14.6156 20.1777C13.3028 18.8649 11.5224 18.1274 9.66585 18.1274C7.80934 18.1274 6.02886 18.8649 4.71611 20.1777C3.40335 21.4904 2.66585 23.2709 2.66585 25.1274H0.33252ZM9.66585 14.6274C5.79835 14.6274 2.66585 11.4949 2.66585 7.62744C2.66585 3.75994 5.79835 0.627441 9.66585 0.627441C13.5334 0.627441 16.6659 3.75994 16.6659 7.62744C16.6659 11.4949 13.5334 14.6274 9.66585 14.6274ZM9.66585 12.2941C12.2442 12.2941 14.3325 10.2058 14.3325 7.62744C14.3325 5.04911 12.2442 2.96077 9.66585 2.96077C7.08752 2.96077 4.99919 5.04911 4.99919 7.62744C4.99919 10.2058 7.08752 12.2941 9.66585 12.2941ZM19.3305 16.6143C20.9701 17.3527 22.3615 18.5489 23.3375 20.0591C24.3136 21.5693 24.8327 23.3293 24.8325 25.1274H22.4992C22.4995 23.7788 22.1102 22.4587 21.3781 21.326C20.6461 20.1932 19.6024 19.296 18.3727 18.7423L19.3294 16.6143H19.3305ZM18.5279 3.44261C19.7033 3.92712 20.7083 4.7499 21.4154 5.80654C22.1224 6.86318 22.4997 8.10605 22.4992 9.37744C22.4997 10.9785 21.9015 12.5219 20.8222 13.7044C19.7428 14.8869 18.2603 15.6232 16.6659 15.7684V13.4199C17.5303 13.2961 18.3323 12.8985 18.954 12.2853C19.5758 11.6722 19.9847 10.8758 20.1205 10.0132C20.2564 9.15058 20.1122 8.26712 19.709 7.49252C19.3058 6.71792 18.6649 6.09298 17.8804 5.70944L18.5279 3.44261Z" fill="#CB8461"/>
</svg>
