<svg width="20" height="21" viewBox="0 0 20 21" fill="none" xmlns="http://www.w3.org/2000/svg">
<path d="M9.99951 9.68335V6.68335L13.9995 10.6833L9.99951 14.6833V11.6833H5.99951V9.68335H9.99951ZM9.99951 0.68335C15.5195 0.68335 19.9995 5.16335 19.9995 10.6833C19.9995 16.2034 15.5195 20.6833 9.99951 20.6833C4.47951 20.6833 -0.000488281 16.2034 -0.000488281 10.6833C-0.000488281 5.16335 4.47951 0.68335 9.99951 0.68335ZM9.99951 18.6833C14.4195 18.6833 17.9995 15.1033 17.9995 10.6833C17.9995 6.26335 14.4195 2.68335 9.99951 2.68335C5.57951 2.68335 1.99951 6.26335 1.99951 10.6833C1.99951 15.1033 5.57951 18.6833 9.99951 18.6833Z" fill="#CB8461"/>
</svg>
