<svg width="100" height="36" viewBox="0 0 100 36" fill="none" xmlns="http://www.w3.org/2000/svg">
<path d="M50.2407 27.24C49.0247 27.24 48.0007 26.956 47.1687 26.388C46.3447 25.82 45.7207 25.064 45.2967 24.12C44.8807 23.176 44.6727 22.144 44.6727 21.024C44.6727 19.904 44.8807 18.872 45.2967 17.928C45.7207 16.984 46.3447 16.228 47.1687 15.66C48.0007 15.092 49.0247 14.808 50.2407 14.808C51.1207 14.808 51.8647 14.956 52.4727 15.252C53.0807 15.54 53.6167 15.912 54.0807 16.368L53.3607 16.992V9H56.3367V27H53.5287L53.3847 24.96L54.2487 25.584C53.6887 26.096 53.1087 26.5 52.5087 26.796C51.9087 27.092 51.1527 27.24 50.2407 27.24ZM50.6727 24.792C51.3287 24.792 51.8647 24.632 52.2807 24.312C52.6967 23.992 53.0047 23.552 53.2047 22.992C53.4047 22.424 53.5047 21.768 53.5047 21.024C53.5047 20.28 53.4047 19.628 53.2047 19.068C53.0047 18.5 52.6967 18.056 52.2807 17.736C51.8647 17.416 51.3287 17.256 50.6727 17.256C50.0487 17.256 49.5167 17.416 49.0767 17.736C48.6367 18.056 48.3007 18.5 48.0687 19.068C47.8367 19.628 47.7207 20.28 47.7207 21.024C47.7207 21.768 47.8367 22.424 48.0687 22.992C48.3007 23.552 48.6367 23.992 49.0767 24.312C49.5167 24.632 50.0487 24.792 50.6727 24.792ZM64.0717 27.24C62.8237 27.24 61.8277 26.992 61.0837 26.496C60.3397 26 59.8037 25.32 59.4757 24.456C59.1477 23.584 58.9837 22.584 58.9837 21.456V15H61.9597V21.456C61.9597 22.568 62.1437 23.396 62.5117 23.94C62.8877 24.476 63.4957 24.744 64.3357 24.744C65.0077 24.744 65.5637 24.584 66.0037 24.264C66.4517 23.944 66.8237 23.496 67.1197 22.92L66.5917 24.432V15H69.5677V27H66.7837L66.6397 24.912L67.2877 25.752C66.9997 26.12 66.5437 26.46 65.9197 26.772C65.3037 27.084 64.6877 27.24 64.0717 27.24ZM77.9139 27.24C76.5379 27.24 75.3819 26.96 74.4459 26.4C73.5179 25.832 72.8139 25.08 72.3339 24.144C71.8619 23.2 71.6259 22.16 71.6259 21.024C71.6259 19.88 71.8619 18.836 72.3339 17.892C72.8059 16.94 73.5139 16.18 74.4579 15.612C75.4019 15.044 76.5859 14.76 78.0099 14.76C78.6819 14.76 79.2899 14.836 79.8339 14.988C80.3779 15.132 80.8419 15.312 81.2259 15.528L80.9859 17.928C80.6179 17.736 80.2019 17.576 79.7379 17.448C79.2819 17.32 78.8019 17.256 78.2979 17.256C77.1459 17.256 76.2539 17.604 75.6219 18.3C74.9899 18.996 74.6739 19.904 74.6739 21.024C74.6739 22.088 74.9979 22.984 75.6459 23.712C76.2939 24.432 77.1699 24.792 78.2739 24.792C78.7459 24.792 79.2099 24.724 79.6659 24.588C80.1299 24.444 80.5779 24.248 81.0099 24L81.2739 26.52C80.8579 26.736 80.3539 26.908 79.7619 27.036C79.1779 27.172 78.5619 27.24 77.9139 27.24ZM85.8597 27.24C85.2197 27.24 84.6357 27.1 84.1077 26.82C83.5797 26.532 83.1597 26.12 82.8477 25.584C82.5357 25.048 82.3797 24.4 82.3797 23.64C82.3797 22.96 82.5357 22.38 82.8477 21.9C83.1677 21.412 83.5837 21.008 84.0957 20.688C84.6157 20.36 85.1757 20.104 85.7757 19.92C86.3837 19.728 86.9797 19.588 87.5637 19.5C88.1557 19.412 88.6757 19.36 89.1237 19.344C89.0917 18.656 88.9157 18.156 88.5957 17.844C88.2757 17.532 87.7317 17.376 86.9637 17.376C86.4277 17.376 85.9037 17.452 85.3917 17.604C84.8877 17.748 84.3157 17.976 83.6757 18.288L83.4117 15.864C84.1317 15.512 84.8517 15.248 85.5717 15.072C86.2997 14.896 87.0357 14.808 87.7797 14.808C88.6757 14.808 89.4477 14.968 90.0957 15.288C90.7437 15.608 91.2437 16.124 91.5957 16.836C91.9477 17.54 92.1237 18.472 92.1237 19.632V22.872C92.1237 23.472 92.1517 23.908 92.2077 24.18C92.2637 24.444 92.3677 24.612 92.5197 24.684C92.6717 24.756 92.8917 24.792 93.1797 24.792H93.5637L93.2997 27.24H92.2197C91.7717 27.24 91.3717 27.18 91.0197 27.06C90.6757 26.948 90.3797 26.788 90.1317 26.58C89.8837 26.372 89.6837 26.128 89.5317 25.848C89.1397 26.288 88.6077 26.632 87.9357 26.88C87.2717 27.12 86.5797 27.24 85.8597 27.24ZM87.1077 24.96C87.3717 24.96 87.6997 24.892 88.0917 24.756C88.4837 24.612 88.8357 24.392 89.1477 24.096V21.36C88.5877 21.384 88.0277 21.476 87.4677 21.636C86.9077 21.796 86.4397 22.032 86.0637 22.344C85.6877 22.656 85.4997 23.048 85.4997 23.52C85.4997 24.008 85.6277 24.372 85.8837 24.612C86.1397 24.844 86.5477 24.96 87.1077 24.96ZM94.9328 27V23.736H98.0528V27H94.9328Z" fill="#2C2C2C"/>
<rect x="0.000244141" y="0.00195312" width="36" height="36" rx="3" fill="#CB8461"/>
<path d="M18.1762 24.2429C16.7282 24.2429 15.5202 23.9549 14.5522 23.3789C13.5922 22.7949 12.8722 22.0269 12.3922 21.0749C11.9122 20.1149 11.6722 19.0669 11.6722 17.9309C11.6722 16.8349 11.8962 15.8229 12.3442 14.8949C12.8002 13.9669 13.4642 13.2229 14.3362 12.6629C15.2082 12.0949 16.2722 11.8109 17.5282 11.8109C18.6802 11.8109 19.6402 12.0469 20.4082 12.5189C21.1762 12.9909 21.7522 13.6229 22.1362 14.4149C22.5202 15.1989 22.7122 16.0669 22.7122 17.0189C22.7122 17.2829 22.6962 17.5509 22.6642 17.8229C22.6322 18.0869 22.5842 18.3629 22.5202 18.6509H14.7682C14.8802 19.3949 15.1122 19.9989 15.4642 20.4629C15.8242 20.9189 16.2602 21.2549 16.7722 21.4709C17.2922 21.6869 17.8482 21.7949 18.4402 21.7949C19.1362 21.7949 19.7842 21.7069 20.3842 21.5309C20.9842 21.3469 21.5362 21.1069 22.0402 20.8109L22.1842 23.3309C21.7282 23.5709 21.1602 23.7829 20.4802 23.9669C19.8002 24.1509 19.0322 24.2429 18.1762 24.2429ZM14.8402 16.6349H19.6882C19.6882 16.2749 19.6202 15.9149 19.4842 15.5549C19.3482 15.1869 19.1202 14.8789 18.8002 14.6309C18.4882 14.3829 18.0642 14.2589 17.5282 14.2589C16.7602 14.2589 16.1562 14.4829 15.7162 14.9309C15.2762 15.3789 14.9842 15.9469 14.8402 16.6349Z" fill="white"/>
</svg>
