<svg width="100" height="37" viewBox="0 0 100 37" fill="none" xmlns="http://www.w3.org/2000/svg">
<path d="M50.239 27.9246C49.023 27.9246 47.999 27.6406 47.167 27.0726C46.343 26.5046 45.719 25.7486 45.295 24.8046C44.879 23.8606 44.671 22.8286 44.671 21.7086C44.671 20.5886 44.879 19.5566 45.295 18.6126C45.719 17.6686 46.343 16.9126 47.167 16.3446C47.999 15.7766 49.023 15.4926 50.239 15.4926C51.119 15.4926 51.863 15.6406 52.471 15.9366C53.079 16.2246 53.615 16.5966 54.079 17.0526L53.359 17.6766V9.68457H56.335V27.6846H53.527L53.383 25.6446L54.247 26.2686C53.687 26.7806 53.107 27.1846 52.507 27.4806C51.907 27.7766 51.151 27.9246 50.239 27.9246ZM50.671 25.4766C51.327 25.4766 51.863 25.3166 52.279 24.9966C52.695 24.6766 53.003 24.2366 53.203 23.6766C53.403 23.1086 53.503 22.4526 53.503 21.7086C53.503 20.9646 53.403 20.3126 53.203 19.7526C53.003 19.1846 52.695 18.7406 52.279 18.4206C51.863 18.1006 51.327 17.9406 50.671 17.9406C50.047 17.9406 49.515 18.1006 49.075 18.4206C48.635 18.7406 48.299 19.1846 48.067 19.7526C47.835 20.3126 47.719 20.9646 47.719 21.7086C47.719 22.4526 47.835 23.1086 48.067 23.6766C48.299 24.2366 48.635 24.6766 49.075 24.9966C49.515 25.3166 50.047 25.4766 50.671 25.4766ZM64.07 27.9246C62.822 27.9246 61.826 27.6766 61.082 27.1806C60.338 26.6846 59.802 26.0046 59.474 25.1406C59.146 24.2686 58.982 23.2686 58.982 22.1406V15.6846H61.958V22.1406C61.958 23.2526 62.142 24.0806 62.51 24.6246C62.886 25.1606 63.494 25.4286 64.334 25.4286C65.006 25.4286 65.562 25.2686 66.002 24.9486C66.45 24.6286 66.822 24.1806 67.118 23.6046L66.59 25.1166V15.6846H69.566V27.6846H66.782L66.638 25.5966L67.286 26.4366C66.998 26.8046 66.542 27.1446 65.918 27.4566C65.302 27.7686 64.686 27.9246 64.07 27.9246ZM77.9121 27.9246C76.5361 27.9246 75.3801 27.6446 74.4441 27.0846C73.5161 26.5166 72.8121 25.7646 72.3321 24.8286C71.8601 23.8846 71.6241 22.8446 71.6241 21.7086C71.6241 20.5646 71.8601 19.5206 72.3321 18.5766C72.8041 17.6246 73.5121 16.8646 74.4561 16.2966C75.4001 15.7286 76.5841 15.4446 78.0081 15.4446C78.6801 15.4446 79.2881 15.5206 79.8321 15.6726C80.3761 15.8166 80.8401 15.9966 81.2241 16.2126L80.9841 18.6126C80.6161 18.4206 80.2001 18.2606 79.7361 18.1326C79.2801 18.0046 78.8001 17.9406 78.2961 17.9406C77.1441 17.9406 76.2521 18.2886 75.6201 18.9846C74.9881 19.6806 74.6721 20.5886 74.6721 21.7086C74.6721 22.7726 74.9961 23.6686 75.6441 24.3966C76.2921 25.1166 77.1681 25.4766 78.2721 25.4766C78.7441 25.4766 79.2081 25.4086 79.6641 25.2726C80.1281 25.1286 80.5761 24.9326 81.0081 24.6846L81.2721 27.2046C80.8561 27.4206 80.3521 27.5926 79.7601 27.7206C79.1761 27.8566 78.5601 27.9246 77.9121 27.9246ZM85.858 27.9246C85.218 27.9246 84.634 27.7846 84.106 27.5046C83.578 27.2166 83.158 26.8046 82.846 26.2686C82.534 25.7326 82.378 25.0846 82.378 24.3246C82.378 23.6446 82.534 23.0646 82.846 22.5846C83.166 22.0966 83.582 21.6926 84.094 21.3726C84.614 21.0446 85.174 20.7886 85.774 20.6046C86.382 20.4126 86.978 20.2726 87.562 20.1846C88.154 20.0966 88.674 20.0446 89.122 20.0286C89.09 19.3406 88.914 18.8406 88.594 18.5286C88.274 18.2166 87.73 18.0606 86.962 18.0606C86.426 18.0606 85.902 18.1366 85.39 18.2886C84.886 18.4326 84.314 18.6606 83.674 18.9726L83.41 16.5486C84.13 16.1966 84.85 15.9326 85.57 15.7566C86.298 15.5806 87.034 15.4926 87.778 15.4926C88.674 15.4926 89.446 15.6526 90.094 15.9726C90.742 16.2926 91.242 16.8086 91.594 17.5206C91.946 18.2246 92.122 19.1566 92.122 20.3166V23.5566C92.122 24.1566 92.15 24.5926 92.206 24.8646C92.262 25.1286 92.366 25.2966 92.518 25.3686C92.67 25.4406 92.89 25.4766 93.178 25.4766H93.562L93.298 27.9246H92.218C91.77 27.9246 91.37 27.8646 91.018 27.7446C90.674 27.6326 90.378 27.4726 90.13 27.2646C89.882 27.0566 89.682 26.8126 89.53 26.5326C89.138 26.9726 88.606 27.3166 87.934 27.5646C87.27 27.8046 86.578 27.9246 85.858 27.9246ZM87.106 25.6446C87.37 25.6446 87.698 25.5766 88.09 25.4406C88.482 25.2966 88.834 25.0766 89.146 24.7806V22.0446C88.586 22.0686 88.026 22.1606 87.466 22.3206C86.906 22.4806 86.438 22.7166 86.062 23.0286C85.686 23.3406 85.498 23.7326 85.498 24.2046C85.498 24.6926 85.626 25.0566 85.882 25.2966C86.138 25.5286 86.546 25.6446 87.106 25.6446ZM94.9311 27.6846V24.4206H98.0511V27.6846H94.9311Z" fill="white"/>
<rect x="-0.000732422" y="0.68457" width="36" height="36" rx="3" fill="#CB8461"/>
<path d="M18.1755 24.9226C16.7275 24.9226 15.5195 24.6346 14.5515 24.0586C13.5915 23.4746 12.8715 22.7066 12.3915 21.7546C11.9115 20.7946 11.6715 19.7466 11.6715 18.6106C11.6715 17.5146 11.8955 16.5026 12.3435 15.5746C12.7995 14.6466 13.4635 13.9026 14.3355 13.3426C15.2075 12.7746 16.2715 12.4906 17.5275 12.4906C18.6795 12.4906 19.6395 12.7266 20.4075 13.1986C21.1755 13.6706 21.7515 14.3026 22.1355 15.0946C22.5195 15.8786 22.7115 16.7466 22.7115 17.6986C22.7115 17.9626 22.6955 18.2306 22.6635 18.5026C22.6315 18.7666 22.5835 19.0426 22.5195 19.3306H14.7675C14.8795 20.0746 15.1115 20.6786 15.4635 21.1426C15.8235 21.5986 16.2595 21.9346 16.7715 22.1506C17.2915 22.3666 17.8475 22.4746 18.4395 22.4746C19.1355 22.4746 19.7835 22.3866 20.3835 22.2106C20.9835 22.0266 21.5355 21.7866 22.0395 21.4906L22.1835 24.0106C21.7275 24.2506 21.1595 24.4626 20.4795 24.6466C19.7995 24.8306 19.0315 24.9226 18.1755 24.9226ZM14.8395 17.3146H19.6875C19.6875 16.9546 19.6195 16.5946 19.4835 16.2346C19.3475 15.8666 19.1195 15.5586 18.7995 15.3106C18.4875 15.0626 18.0635 14.9386 17.5275 14.9386C16.7595 14.9386 16.1555 15.1626 15.7155 15.6106C15.2755 16.0586 14.9835 16.6266 14.8395 17.3146Z" fill="white"/>
</svg>
