<svg width="120" height="20" viewBox="0 0 120 20" fill="none" xmlns="http://www.w3.org/2000/svg">
<g clip-path="url(#clip0_4169_2524)">
<path d="M10.0006 15.217L4.12308 18.507L5.43558 11.9003L0.489746 7.32699L7.17891 6.53366L10.0006 0.416992L12.8222 6.53366L19.5114 7.32699L14.5656 11.9003L15.8781 18.507L10.0006 15.217Z" fill="#F3B411"/>
</g>
<g clip-path="url(#clip1_4169_2524)">
<path d="M35.0001 15.217L29.1226 18.507L30.4351 11.9003L25.4893 7.32699L32.1784 6.53366L35.0001 0.416992L37.8218 6.53366L44.5109 7.32699L39.5651 11.9003L40.8776 18.507L35.0001 15.217Z" fill="#F3B411"/>
</g>
<g clip-path="url(#clip2_4169_2524)">
<path d="M59.9996 15.217L54.1221 18.507L55.4346 11.9003L50.4888 7.32699L57.1779 6.53366L59.9996 0.416992L62.8213 6.53366L69.5104 7.32699L64.5646 11.9003L65.8771 18.507L59.9996 15.217Z" fill="#F3B411"/>
</g>
<g clip-path="url(#clip3_4169_2524)">
<path d="M85.0011 15.217L79.1236 18.507L80.4361 11.9003L75.4902 7.32699L82.1794 6.53366L85.0011 0.416992L87.8227 6.53366L94.5119 7.32699L89.5661 11.9003L90.8786 18.507L85.0011 15.217Z" fill="#F3B411"/>
</g>
<g clip-path="url(#clip4_4169_2524)">
<path d="M110 13.307L113.539 15.2878L112.748 11.3103L115.725 8.55616L111.698 8.07866L110 4.39616V13.307ZM110 15.217L104.122 18.507L105.435 11.9003L100.489 7.32699L107.178 6.53366L110 0.416992L112.821 6.53366L119.51 7.32699L114.565 11.9003L115.877 18.507L110 15.217Z" fill="#F3B411"/>
</g>
<defs>
<clipPath id="clip0_4169_2524">
<rect width="20" height="20" fill="white" transform="translate(0 0.000976562)"/>
</clipPath>
<clipPath id="clip1_4169_2524">
<rect width="20" height="20" fill="white" transform="translate(25 0.000976562)"/>
</clipPath>
<clipPath id="clip2_4169_2524">
<rect width="20" height="20" fill="white" transform="translate(49.9995 0.000976562)"/>
</clipPath>
<clipPath id="clip3_4169_2524">
<rect width="20" height="20" fill="white" transform="translate(74.9995 0.000976562)"/>
</clipPath>
<clipPath id="clip4_4169_2524">
<rect width="20" height="20" fill="white" transform="translate(100.001 0.000976562)"/>
</clipPath>
</defs>
</svg>
