<svg width="27" height="28" viewBox="0 0 27 28" fill="none" xmlns="http://www.w3.org/2000/svg">
<path fill-rule="evenodd" clip-rule="evenodd" d="M-0.000976562 14.1851C-0.000976562 10.6046 1.42134 7.17086 3.95308 4.63912C6.48482 2.10738 9.9186 0.685059 13.499 0.685059C17.0794 0.685059 20.5132 2.10738 23.045 4.63912C25.5767 7.17086 26.999 10.6046 26.999 14.1851C26.999 17.7655 25.5767 21.1993 23.045 23.731C20.5132 26.2627 17.0794 27.6851 13.499 27.6851C9.9186 27.6851 6.48482 26.2627 3.95308 23.731C1.42134 21.1993 -0.000976562 17.7655 -0.000976562 14.1851H-0.000976562ZM12.7286 19.9631L20.501 10.2467L19.097 9.12346L12.4694 17.4053L7.77502 13.4939L6.62302 14.8763L12.7286 19.9649V19.9631Z" fill="white"/>
</svg>
