<svg width="72" height="56" viewBox="0 0 72 56" fill="none" xmlns="http://www.w3.org/2000/svg">
<path d="M6.332 50.969C2.212 46.593 0 41.685 0 33.729C0 19.729 9.828 7.18105 24.12 0.977051L27.692 6.48905C14.352 13.7051 11.744 23.069 10.704 28.973C12.852 27.861 15.664 27.473 18.42 27.729C25.636 28.397 31.324 34.321 31.324 41.685C31.324 45.3981 29.849 48.959 27.2235 51.5845C24.598 54.2101 21.037 55.685 17.324 55.685C13.032 55.685 8.928 53.725 6.332 50.969ZM46.332 50.969C42.212 46.593 40 41.685 40 33.729C40 19.729 49.828 7.18105 64.12 0.977051L67.692 6.48905C54.352 13.7051 51.744 23.069 50.704 28.973C52.852 27.861 55.664 27.473 58.42 27.729C65.636 28.397 71.324 34.321 71.324 41.685C71.324 45.3981 69.849 48.959 67.2235 51.5845C64.598 54.2101 61.037 55.685 57.324 55.685C53.032 55.685 48.928 53.725 46.332 50.969Z" fill="#245D51" fill-opacity="0.1"/>
</svg>
