<svg width="20" height="21" viewBox="0 0 20 21" fill="none" xmlns="http://www.w3.org/2000/svg">
<g clip-path="url(#clip0_4169_2179)">
<path fill-rule="evenodd" clip-rule="evenodd" d="M0 10.4595C0 7.80731 1.05357 5.26377 2.92893 3.3884C4.8043 1.51304 7.34784 0.459473 10 0.459473C12.6522 0.459473 15.1957 1.51304 17.0711 3.3884C18.9464 5.26377 20 7.80731 20 10.4595C20 13.1116 18.9464 15.6552 17.0711 17.5305C15.1957 19.4059 12.6522 20.4595 10 20.4595C7.34784 20.4595 4.8043 19.4059 2.92893 17.5305C1.05357 15.6552 0 13.1116 0 10.4595H0ZM9.42933 14.7395L15.1867 7.54214L14.1467 6.71014L9.23733 12.8448L5.76 9.94747L4.90667 10.9715L9.42933 14.7408V14.7395Z" fill="#245D51"/>
</g>
<defs>
<clipPath id="clip0_4169_2179">
<rect width="20" height="20" fill="white" transform="translate(0 0.459473)"/>
</clipPath>
</defs>
</svg>
